<svg xmlns="http://www.w3.org/2000/svg" viewBox="240 565 1080 370"><defs><clipPath id="a"><path d="M316 606.047h153V894H316Zm0 0"/></clipPath><clipPath id="b"><path d="M1011.254 684H1127v143h-115.746Zm0 0"/></clipPath></defs><path fill="none" stroke="#191919" stroke-linecap="round" stroke-width="3" d="M507.844 570.598v358.808"/><g clip-path="url(#a)"><path fill="#004aad" d="M419.863 606.047c-6.207 0-8.89 3.914-11.117 7.91l-92.387 163.84 58.996 108.23c2.047 3.688 5.223 7.914 11.59 7.914h41.477c2.496 0 4.496-.941 5.515-2.695 1.09-1.777 1.07-4.117-.09-6.422L375.31 777.93a.26.26 0 0 1 0-.278l91.937-162.543c1.152-2.297 1.18-4.632.09-6.406-1.066-1.719-3.031-2.656-5.531-2.656Zm0 0"/></g><path fill="#00bf63" d="M245.39 662.855c-2.495 0-4.46.942-5.511 2.653-1.094 1.777-1.063 4.113.09 6.418l28.258 48.472a.3.3 0 0 1 0 .282l-44.239 77.91c-1.152 2.297-1.168 4.637-.07 6.41 1.062 1.71 3.012 2.656 5.516 2.656h41.629c6.21 0 9.011-4.086 11.136-7.918l44.98-79.199c-.179-.281-28.66-49.758-28.66-49.758-2.062-3.691-5.238-7.926-11.609-7.926ZM642.132 702.903q1.138-2.139 3.844-3c1.8-.57 4.078-.86 6.828-.86 2.758 0 4.945.243 6.562.72q2.42.721 3.704 1.718 1.278.986 2 2.844.702 2.426.703 7.406v79.032c0 2.18-.075 3.812-.22 4.906q-.205 1.641-1.343 3.781-2.004 3.844-11.11 3.844-9.972.001-11.671-5.266-.86-2.42-.86-7.406v-28.906h-37.734v29.047c0 2.18-.074 3.812-.219 4.906q-.222 1.641-1.359 3.781-1.987 3.844-11.094 3.844-9.971.001-11.687-5.266-.844-2.42-.844-7.406v-79.047q-.001-3.265.203-4.906.217-1.64 1.36-3.766c1.32-2.57 5.023-3.86 11.109-3.86q9.966.002 11.812 5.282c.477 1.617.72 4.086.72 7.406v29.047h37.734v-29.203q-.001-3.265.203-4.906.216-1.64 1.359-3.766M687.428 711.575q-.001-3.265.203-4.906.216-1.64 1.36-3.766c1.32-2.57 5.023-3.86 11.109-3.86q9.966.002 11.812 5.282.717 2.426.719 7.406v79.172q0 3.423-.219 4.985-.222 1.564-1.36 3.703-1.986 3.843-11.093 3.843-9.971.001-11.687-5.406-.844-2.28-.844-7.265ZM814.17 785.778q2.124 5.127 2.126 7.406c0 3.606-2.946 6.641-8.828 9.11q-4.55 1.999-7.329 2-2.782-.002-4.562-1.344-1.782-1.357-2.625-2.797-1.441-2.701-11.11-25.765l-4.421.28h-17.938v16.095c0 2.18-.074 3.812-.219 4.906q-.222 1.641-1.359 3.781-1.987 3.844-11.094 3.844-9.972.001-11.687-5.266-.844-2.42-.844-7.406v-79.047q-.001-3.265.203-4.906.217-1.64 1.36-3.766c1.32-2.57 5.023-3.86 11.109-3.86h30.75q12.529.001 24.36 9.126c3.788 2.937 6.921 6.922 9.39 11.953q3.703 7.548 3.703 16.812-.001 16.096-10.672 26.485 3.124 7.546 9.688 22.36m-54.687-36.312h18.219c2.758 0 5.516-1.04 8.266-3.125 2.75-2.094 4.125-5.227 4.125-9.407q0-6.263-4.125-9.468c-2.75-2.133-5.602-3.203-8.547-3.203h-17.938ZM859.595 778.231h43.86q3.264.001 4.906.219 1.64.206 3.781 1.344 3.844 2.004 3.844 11.11-.002 9.972-5.266 11.671-2.426.86-7.406.86h-56.39q-9.972.001-11.688-5.407-.844-2.28-.844-7.265v-79.188q-.002-7.248 2.703-9.89 2.703-2.639 10.25-2.641h56.11q3.264 0 4.906.219 1.64.222 3.781 1.359 3.844 1.986 3.844 11.11-.002 9.972-5.266 11.671-2.426.86-7.406.86h-43.719v14.375h28.188q3.28.001 4.922.218 1.64.206 3.765 1.344 3.844 2.004 3.844 11.11 c0 6.648-1.805 10.542-5.406 11.687q-2.426.843-7.406.844h-27.907Zm0 0"/><path fill="#004aad" d="M1005.433 779.09c3.695 0 6.375.454 8.031 1.36q2.496 1.347 3.422 3.906c.613 1.711.922 3.89.922 6.547q-.002 3.985-.719 6.406-.705 2.427-1.703 3.704-.985 1.283-2.984 1.859-2.286.843-7.266.844h-59.234q-3.283 0-6.266-1.703-6.268-3.563-6.266-11.25c0-2.47.567-4.461 1.703-5.985l44.157-61.094h-32.766q-3.408.001-5.047-.203-1.642-.216-3.922-1.218-4.125-1.998-4.125-10.688 0-9.107 3.844-11.094 2.138-1.136 3.766-1.36 1.64-.217 5.062-.218h57.25q3.263 0 6.25 1.719 3 1.704 4.64 4.562c1.095 1.899 1.641 4.125 1.641 6.688q-.001 3.844-1.718 6.125l-44.141 61.094ZM1197.323 703.403c.907-1.664 2.258-2.781 4.063-3.344 1.8-.57 4.05-.859 6.75-.859q4.061.002 6.547.719 2.496.705 3.703 1.703 1.217.985 1.797 2.984c.57 1.524.86 3.946.86 7.266v79.031q-.001 3.423-.22 4.985-.222 1.564-1.359 3.703-1.986 3.843-11.11 3.843-5.548 0-7.687-.843-2.127-.855-3.562-2.72-32.034-42.714-42.141-55.827v46.86q0 3.422-.219 4.984-.222 1.564-1.36 3.703-1.985 3.843-11.108 3.843-8.832 0-10.813-3.843-1.143-2.139-1.36-3.844-.203-1.717-.202-4.984v-79.47c0-3.6.445-6.234 1.343-7.89.907-1.664 2.258-2.781 4.063-3.344 1.8-.57 4.125-.859 6.969-.859 2.851 0 5.109.262 6.765.781q2.497.785 3.5 1.782.56.42 3.266 3.703 30.045 40.862 40.156 53.968v-48.14c0-3.602.453-6.235 1.36-7.89M1267.89 778.231h43.86q3.265.001 4.907.219 1.638.206 3.78 1.344 3.845 2.004 3.845 11.11c0 6.648-1.758 10.538-5.266 11.671q-2.426.86-7.406.86h-56.39q-9.974.001-11.688-5.407-.844-2.28-.844-7.265v-79.188c0-4.832.898-8.129 2.703-9.89q2.702-2.639 10.25-2.641h56.11q3.264 0 4.906.219 1.638.222 3.78 1.359 3.845 1.986 3.845 11.11c0 6.648-1.758 10.538-5.266 11.671q-2.426.86-7.406.86h-43.72v14.375h28.188q3.282.001 4.922.218 1.64.206 3.766 1.344 3.844 2.004 3.844 11.11 c0 6.648-1.805 10.542-5.407 11.687q-2.425.843-7.406.844h-27.906Zm0 0"/><path fill="#00bf63" fill-rule="evenodd" d="M1104.34 710.191c21.605 14.036 27.75 42.926 13.715 64.536-12.024 18.515-34.961 25.675-54.875 18.511l-13.328 20.528-10.59 16.304c-3.207 4.942-9.875 6.36-14.817 3.153-4.941-3.211-6.36-9.88-3.152-14.82l10.59-16.305 13.328-20.528c-14.64-15.277-17.434-39.144-5.406-57.66 14.03-21.61 42.922-27.75 64.535-13.719m-79.895 123.032"/><g clip-path="url(#b)"><path fill="#1800ad" d="M1098.586 700.93c9.379 6.09 15.398 15.402 17.555 25.539 2.156 10.133.441 21.093-5.649 30.468l-6.18-4.015c4.981-7.668 6.38-16.633 4.618-24.922s-6.688-15.906-14.356-20.89Zm5.363-8.262c11.66 7.57 19.145 19.152 21.824 31.754s.551 26.223-7.02 37.879c-7.57 11.66-19.148 19.144-31.75 21.824a50.3 50.3 0 0 1-24.667-.934l-11.399 17.555-2.175 3.352-10.59 16.304a14.36 14.36 0 0 1-9.082 6.227 14.36 14.36 0 0 1-10.836-1.992 14.37 14.37 0 0 1-6.227-9.086 14.36 14.36 0 0 1 1.993-10.836l10.59-16.305 2.175-3.351 11.399-17.547a50.26 50.26 0 0 1-10.883-22.16c-2.68-12.598-.551-26.223 7.015-37.88 7.575-11.656 19.153-19.144 31.754-21.82 12.602-2.683 26.223-.55 37.88 7.016m-48.668 87.855a51 51 0 0 1-4.77-2.546l-.003-.004-.078-.047q-.151-.094-.309-.188c-.14-.09-.285-.176-.426-.265l-.05-.032c-.176-.113-.352-.222-.524-.336-.176-.113-.348-.23-.52-.343l-.05-.032c-.137-.093-.278-.187-.414-.285a8 8 0 0 1-.297-.203l-.078-.054h-.004a51 51 0 0 1-4.266-3.317l-10.832 16.676q.75.549 1.457 1.05c1.262.895 2.703 1.868 4.336 2.93a130 130 0 0 0 4.442 2.77c.5.3 1.02.598 1.554.906Zm63.282-54.57c-2.286-10.758-8.676-20.637-18.626-27.101-9.953-6.461-21.582-8.278-32.335-5.993-10.754 2.29-20.637 8.676-27.098 18.625-6.465 9.953-8.281 21.582-5.992 32.336 2.285 10.754 8.672 20.64 18.625 27.102 9.949 6.46 21.578 8.277 32.332 5.992 10.758-2.285 20.64-8.676 27.101-18.629 6.461-9.95 8.282-21.578 5.993-32.332m-86.57 90.434 8.445-13.008q-.64-.374-1.301-.766c-1.73-1.027-3.301-1.996-4.696-2.902a150.97 150.97 0 0 1-5.79-3.988l-8.448 13.011a7 7 0 0 0-.969 5.282 7.02 7.02 0 0 0 3.036 4.437 7.02 7.02 0 0 0 5.285.969 7.02 7.02 0 0 0 4.437-3.035m0 0"/></g></svg>