<svg xmlns="http://www.w3.org/2000/svg" xmlns:xlink="http://www.w3.org/1999/xlink" width="2000" zoomAndPan="magnify" viewBox="0 0 1500 1499.999933" height="2000" preserveAspectRatio="xMidYMid meet" version="1.0"><defs><g/><clipPath id="a963cc72e8"><path d="M 316 606.046875 L 469 606.046875 L 469 894 L 316 894 Z M 316 606.046875 " clip-rule="nonzero"/></clipPath><clipPath id="6aab2a29a0"><path d="M 1011.253906 684 L 1127 684 L 1127 827 L 1011.253906 827 Z M 1011.253906 684 " clip-rule="nonzero"/></clipPath></defs><path stroke-linecap="round" transform="matrix(0, 0.75, -0.75, 0, 509.344453, 569.097579)" fill="none" stroke-linejoin="miter" d="M 2.000103 2.000938 L 480.411603 2.000938 " stroke="#191919" stroke-width="4" stroke-opacity="1" stroke-miterlimit="4"/><g clip-path="url(#a963cc72e8)"><path fill="#004aad" d="M 419.863281 606.046875 C 413.65625 606.046875 410.972656 609.960938 408.746094 613.957031 L 316.359375 777.796875 L 375.355469 886.027344 C 377.402344 889.714844 380.578125 893.941406 386.945312 893.941406 L 428.421875 893.941406 C 430.917969 893.941406 432.917969 893 433.9375 891.246094 C 435.027344 889.46875 435.007812 887.128906 433.847656 884.824219 L 375.308594 777.929688 C 375.253906 777.839844 375.253906 777.738281 375.308594 777.652344 L 467.246094 615.109375 C 468.398438 612.8125 468.425781 610.476562 467.335938 608.703125 C 466.269531 606.984375 464.304688 606.046875 461.804688 606.046875 Z M 419.863281 606.046875 " fill-opacity="1" fill-rule="nonzero"/></g><path fill="#00bf63" d="M 245.390625 662.855469 C 242.894531 662.855469 240.929688 663.796875 239.878906 665.507812 C 238.785156 667.285156 238.816406 669.621094 239.96875 671.925781 L 268.226562 720.398438 C 268.273438 720.492188 268.273438 720.585938 268.226562 720.679688 L 223.988281 798.589844 C 222.835938 800.886719 222.820312 803.226562 223.917969 805 C 224.980469 806.710938 226.929688 807.65625 229.433594 807.65625 L 271.0625 807.65625 C 277.273438 807.65625 280.074219 803.570312 282.199219 799.738281 L 327.179688 720.539062 C 327 720.257812 298.519531 670.78125 298.519531 670.78125 C 296.457031 667.089844 293.28125 662.855469 286.910156 662.855469 Z M 245.390625 662.855469 " fill-opacity="1" fill-rule="nonzero"/><g fill="#00bf63" fill-opacity="1"><g transform="translate(571.928888, 803.434423)"><g><path d="M 70.203125 -100.53125 C 70.960938 -101.957031 72.242188 -102.957031 74.046875 -103.53125 C 75.847656 -104.101562 78.125 -104.390625 80.875 -104.390625 C 83.632812 -104.390625 85.820312 -104.148438 87.4375 -103.671875 C 89.050781 -103.191406 90.285156 -102.617188 91.140625 -101.953125 C 91.992188 -101.296875 92.660156 -100.347656 93.140625 -99.109375 C 93.609375 -97.492188 93.84375 -95.023438 93.84375 -91.703125 L 93.84375 -12.671875 C 93.84375 -10.492188 93.769531 -8.859375 93.625 -7.765625 C 93.488281 -6.671875 93.039062 -5.410156 92.28125 -3.984375 C 90.945312 -1.421875 87.242188 -0.140625 81.171875 -0.140625 C 74.523438 -0.140625 70.632812 -1.894531 69.5 -5.40625 C 68.925781 -7.019531 68.640625 -9.488281 68.640625 -12.8125 L 68.640625 -41.71875 L 30.90625 -41.71875 L 30.90625 -12.671875 C 30.90625 -10.492188 30.832031 -8.859375 30.6875 -7.765625 C 30.539062 -6.671875 30.085938 -5.410156 29.328125 -3.984375 C 28.003906 -1.421875 24.304688 -0.140625 18.234375 -0.140625 C 11.585938 -0.140625 7.691406 -1.894531 6.546875 -5.40625 C 5.984375 -7.019531 5.703125 -9.488281 5.703125 -12.8125 L 5.703125 -91.859375 C 5.703125 -94.035156 5.769531 -95.671875 5.90625 -96.765625 C 6.050781 -97.859375 6.503906 -99.113281 7.265625 -100.53125 C 8.585938 -103.101562 12.289062 -104.390625 18.375 -104.390625 C 25.019531 -104.390625 28.957031 -102.628906 30.1875 -99.109375 C 30.664062 -97.492188 30.90625 -95.023438 30.90625 -91.703125 L 30.90625 -62.65625 L 68.640625 -62.65625 L 68.640625 -91.859375 C 68.640625 -94.035156 68.707031 -95.671875 68.84375 -96.765625 C 68.988281 -97.859375 69.441406 -99.113281 70.203125 -100.53125 Z M 70.203125 -100.53125 "/></g></g></g><g fill="#00bf63" fill-opacity="1"><g transform="translate(681.724685, 803.434423)"><g><path d="M 5.703125 -91.859375 C 5.703125 -94.035156 5.769531 -95.671875 5.90625 -96.765625 C 6.050781 -97.859375 6.503906 -99.113281 7.265625 -100.53125 C 8.585938 -103.101562 12.289062 -104.390625 18.375 -104.390625 C 25.019531 -104.390625 28.957031 -102.628906 30.1875 -99.109375 C 30.664062 -97.492188 30.90625 -95.023438 30.90625 -91.703125 L 30.90625 -12.53125 C 30.90625 -10.25 30.832031 -8.585938 30.6875 -7.546875 C 30.539062 -6.503906 30.085938 -5.269531 29.328125 -3.84375 C 28.003906 -1.28125 24.304688 0 18.234375 0 C 11.585938 0 7.691406 -1.800781 6.546875 -5.40625 C 5.984375 -6.925781 5.703125 -9.347656 5.703125 -12.671875 Z M 5.703125 -91.859375 "/></g></g></g><g fill="#00bf63" fill-opacity="1"><g transform="translate(728.576965, 803.434423)"><g><path d="M 85.59375 -17.65625 C 87.007812 -14.238281 87.71875 -11.769531 87.71875 -10.25 C 87.71875 -6.644531 84.773438 -3.609375 78.890625 -1.140625 C 75.859375 0.191406 73.414062 0.859375 71.5625 0.859375 C 69.707031 0.859375 68.1875 0.410156 67 -0.484375 C 65.8125 -1.390625 64.9375 -2.320312 64.375 -3.28125 C 63.414062 -5.082031 59.710938 -13.671875 53.265625 -29.046875 L 48.84375 -28.765625 L 30.90625 -28.765625 L 30.90625 -12.671875 C 30.90625 -10.492188 30.832031 -8.859375 30.6875 -7.765625 C 30.539062 -6.671875 30.085938 -5.410156 29.328125 -3.984375 C 28.003906 -1.421875 24.304688 -0.140625 18.234375 -0.140625 C 11.585938 -0.140625 7.691406 -1.894531 6.546875 -5.40625 C 5.984375 -7.019531 5.703125 -9.488281 5.703125 -12.8125 L 5.703125 -91.859375 C 5.703125 -94.035156 5.769531 -95.671875 5.90625 -96.765625 C 6.050781 -97.859375 6.503906 -99.113281 7.265625 -100.53125 C 8.585938 -103.101562 12.289062 -104.390625 18.375 -104.390625 L 49.125 -104.390625 C 57.476562 -104.390625 65.597656 -101.347656 73.484375 -95.265625 C 77.273438 -92.328125 80.40625 -88.34375 82.875 -83.3125 C 85.34375 -78.28125 86.578125 -72.675781 86.578125 -66.5 C 86.578125 -55.769531 83.019531 -46.941406 75.90625 -40.015625 C 77.988281 -34.984375 81.21875 -27.53125 85.59375 -17.65625 Z M 30.90625 -53.96875 L 49.125 -53.96875 C 51.882812 -53.96875 54.640625 -55.007812 57.390625 -57.09375 C 60.140625 -59.1875 61.515625 -62.320312 61.515625 -66.5 C 61.515625 -70.675781 60.140625 -73.832031 57.390625 -75.96875 C 54.640625 -78.101562 51.789062 -79.171875 48.84375 -79.171875 L 30.90625 -79.171875 Z M 30.90625 -53.96875 "/></g></g></g><g fill="#00bf63" fill-opacity="1"><g transform="translate(828.68915, 803.434423)"><g><path d="M 30.90625 -25.203125 L 74.765625 -25.203125 C 76.941406 -25.203125 78.578125 -25.128906 79.671875 -24.984375 C 80.765625 -24.847656 82.023438 -24.398438 83.453125 -23.640625 C 86.015625 -22.304688 87.296875 -18.601562 87.296875 -12.53125 C 87.296875 -5.882812 85.539062 -1.992188 82.03125 -0.859375 C 80.414062 -0.285156 77.945312 0 74.625 0 L 18.234375 0 C 11.585938 0 7.691406 -1.800781 6.546875 -5.40625 C 5.984375 -6.925781 5.703125 -9.347656 5.703125 -12.671875 L 5.703125 -91.859375 C 5.703125 -96.691406 6.601562 -99.988281 8.40625 -101.75 C 10.207031 -103.507812 13.625 -104.390625 18.65625 -104.390625 L 74.765625 -104.390625 C 76.941406 -104.390625 78.578125 -104.316406 79.671875 -104.171875 C 80.765625 -104.023438 82.023438 -103.570312 83.453125 -102.8125 C 86.015625 -101.488281 87.296875 -97.785156 87.296875 -91.703125 C 87.296875 -85.054688 85.539062 -81.164062 82.03125 -80.03125 C 80.414062 -79.457031 77.945312 -79.171875 74.625 -79.171875 L 30.90625 -79.171875 L 30.90625 -64.796875 L 59.09375 -64.796875 C 61.28125 -64.796875 62.921875 -64.722656 64.015625 -64.578125 C 65.109375 -64.441406 66.363281 -63.992188 67.78125 -63.234375 C 70.34375 -61.898438 71.625 -58.195312 71.625 -52.125 C 71.625 -45.476562 69.820312 -41.582031 66.21875 -40.4375 C 64.601562 -39.875 62.132812 -39.59375 58.8125 -39.59375 L 30.90625 -39.59375 Z M 30.90625 -25.203125 "/></g></g></g><g fill="#004aad" fill-opacity="1"><g transform="translate(929.807767, 803.434423)"><g><path d="M 75.625 -24.34375 C 79.320312 -24.34375 82 -23.890625 83.65625 -22.984375 C 85.320312 -22.085938 86.460938 -20.785156 87.078125 -19.078125 C 87.691406 -17.367188 88 -15.1875 88 -12.53125 C 88 -9.875 87.757812 -7.738281 87.28125 -6.125 C 86.8125 -4.507812 86.242188 -3.273438 85.578125 -2.421875 C 84.921875 -1.566406 83.925781 -0.945312 82.59375 -0.5625 C 81.070312 0 78.648438 0.28125 75.328125 0.28125 L 16.09375 0.28125 C 13.90625 0.28125 11.816406 -0.285156 9.828125 -1.421875 C 5.648438 -3.796875 3.5625 -7.546875 3.5625 -12.671875 C 3.5625 -15.140625 4.128906 -17.132812 5.265625 -18.65625 L 49.421875 -79.75 L 16.65625 -79.75 C 14.382812 -79.75 12.703125 -79.816406 11.609375 -79.953125 C 10.515625 -80.097656 9.207031 -80.503906 7.6875 -81.171875 C 4.9375 -82.503906 3.5625 -86.066406 3.5625 -91.859375 C 3.5625 -97.929688 4.84375 -101.628906 7.40625 -102.953125 C 8.832031 -103.710938 10.085938 -104.164062 11.171875 -104.3125 C 12.265625 -104.457031 13.953125 -104.53125 16.234375 -104.53125 L 73.484375 -104.53125 C 75.660156 -104.53125 77.742188 -103.957031 79.734375 -102.8125 C 81.734375 -101.675781 83.28125 -100.15625 84.375 -98.25 C 85.46875 -96.351562 86.015625 -94.125 86.015625 -91.5625 C 86.015625 -89 85.441406 -86.957031 84.296875 -85.4375 L 40.15625 -24.34375 Z M 75.625 -24.34375 "/></g></g></g><g fill="#004aad" fill-opacity="1"><g transform="translate(1031.631973, 803.434423)"><g/></g></g><g fill="#004aad" fill-opacity="1"><g transform="translate(1077.914623, 803.434423)"><g/></g></g><g fill="#004aad" fill-opacity="1"><g transform="translate(1124.198376, 803.434423)"><g><path d="M 73.125 -100.03125 C 74.03125 -101.695312 75.382812 -102.8125 77.1875 -103.375 C 78.988281 -103.945312 81.238281 -104.234375 83.9375 -104.234375 C 86.644531 -104.234375 88.828125 -103.992188 90.484375 -103.515625 C 92.148438 -103.046875 93.382812 -102.476562 94.1875 -101.8125 C 95 -101.15625 95.597656 -100.160156 95.984375 -98.828125 C 96.554688 -97.304688 96.84375 -94.882812 96.84375 -91.5625 L 96.84375 -12.53125 C 96.84375 -10.25 96.769531 -8.585938 96.625 -7.546875 C 96.476562 -6.503906 96.023438 -5.269531 95.265625 -3.84375 C 93.941406 -1.28125 90.238281 0 84.15625 0 C 80.457031 0 77.894531 -0.28125 76.46875 -0.84375 C 75.050781 -1.414062 73.863281 -2.320312 72.90625 -3.5625 C 51.550781 -32.039062 37.503906 -50.648438 30.765625 -59.390625 L 30.765625 -12.53125 C 30.765625 -10.25 30.691406 -8.585938 30.546875 -7.546875 C 30.398438 -6.503906 29.945312 -5.269531 29.1875 -3.84375 C 27.863281 -1.28125 24.160156 0 18.078125 0 C 12.191406 0 8.585938 -1.28125 7.265625 -3.84375 C 6.503906 -5.269531 6.050781 -6.550781 5.90625 -7.6875 C 5.769531 -8.832031 5.703125 -10.492188 5.703125 -12.671875 L 5.703125 -92.140625 C 5.703125 -95.742188 6.148438 -98.375 7.046875 -100.03125 C 7.953125 -101.695312 9.304688 -102.8125 11.109375 -103.375 C 12.910156 -103.945312 15.234375 -104.234375 18.078125 -104.234375 C 20.929688 -104.234375 23.1875 -103.972656 24.84375 -103.453125 C 26.507812 -102.929688 27.675781 -102.335938 28.34375 -101.671875 C 28.71875 -101.390625 29.804688 -100.15625 31.609375 -97.96875 C 51.640625 -70.726562 65.023438 -52.738281 71.765625 -44 L 71.765625 -92.140625 C 71.765625 -95.742188 72.21875 -98.375 73.125 -100.03125 Z M 73.125 -100.03125 "/></g></g></g><g fill="#004aad" fill-opacity="1"><g transform="translate(1236.984697, 803.434423)"><g><path d="M 30.90625 -25.203125 L 74.765625 -25.203125 C 76.941406 -25.203125 78.578125 -25.128906 79.671875 -24.984375 C 80.765625 -24.847656 82.023438 -24.398438 83.453125 -23.640625 C 86.015625 -22.304688 87.296875 -18.601562 87.296875 -12.53125 C 87.296875 -5.882812 85.539062 -1.992188 82.03125 -0.859375 C 80.414062 -0.285156 77.945312 0 74.625 0 L 18.234375 0 C 11.585938 0 7.691406 -1.800781 6.546875 -5.40625 C 5.984375 -6.925781 5.703125 -9.347656 5.703125 -12.671875 L 5.703125 -91.859375 C 5.703125 -96.691406 6.601562 -99.988281 8.40625 -101.75 C 10.207031 -103.507812 13.625 -104.390625 18.65625 -104.390625 L 74.765625 -104.390625 C 76.941406 -104.390625 78.578125 -104.316406 79.671875 -104.171875 C 80.765625 -104.023438 82.023438 -103.570312 83.453125 -102.8125 C 86.015625 -101.488281 87.296875 -97.785156 87.296875 -91.703125 C 87.296875 -85.054688 85.539062 -81.164062 82.03125 -80.03125 C 80.414062 -79.457031 77.945312 -79.171875 74.625 -79.171875 L 30.90625 -79.171875 L 30.90625 -64.796875 L 59.09375 -64.796875 C 61.28125 -64.796875 62.921875 -64.722656 64.015625 -64.578125 C 65.109375 -64.441406 66.363281 -63.992188 67.78125 -63.234375 C 70.34375 -61.898438 71.625 -58.195312 71.625 -52.125 C 71.625 -45.476562 69.820312 -41.582031 66.21875 -40.4375 C 64.601562 -39.875 62.132812 -39.59375 58.8125 -39.59375 L 30.90625 -39.59375 Z M 30.90625 -25.203125 "/></g></g></g><path fill="#00bf63" d="M 1104.339844 710.191406 C 1125.945312 724.226562 1132.089844 753.117188 1118.054688 774.726562 C 1106.03125 793.242188 1083.09375 800.402344 1063.179688 793.238281 L 1049.851562 813.765625 L 1039.261719 830.070312 C 1036.054688 835.011719 1029.386719 836.429688 1024.445312 833.222656 C 1019.503906 830.011719 1018.085938 823.34375 1021.292969 818.402344 L 1031.882812 802.097656 L 1045.210938 781.570312 C 1030.570312 766.292969 1027.777344 742.425781 1039.804688 723.910156 C 1053.835938 702.300781 1082.726562 696.160156 1104.339844 710.191406 Z M 1024.445312 833.222656 Z M 1024.445312 833.222656 " fill-opacity="1" fill-rule="evenodd"/><g clip-path="url(#6aab2a29a0)"><path fill="#1800ad" d="M 1098.585938 700.929688 C 1107.964844 707.019531 1113.984375 716.332031 1116.140625 726.46875 C 1118.296875 736.601562 1116.582031 747.5625 1110.492188 756.9375 L 1104.3125 752.921875 C 1109.292969 745.253906 1110.691406 736.289062 1108.929688 728 C 1107.167969 719.710938 1102.242188 712.09375 1094.574219 707.109375 Z M 1103.949219 692.667969 C 1115.609375 700.238281 1123.09375 711.820312 1125.773438 724.421875 C 1128.453125 737.023438 1126.324219 750.644531 1118.753906 762.300781 C 1111.183594 773.960938 1099.605469 781.445312 1087.003906 784.125 C 1078.9375 785.839844 1070.453125 785.582031 1062.335938 783.191406 L 1050.9375 800.746094 L 1048.761719 804.097656 L 1038.171875 820.402344 C 1036.015625 823.722656 1032.695312 825.863281 1029.089844 826.628906 C 1025.480469 827.398438 1021.578125 826.792969 1018.253906 824.636719 C 1014.933594 822.476562 1012.792969 819.15625 1012.027344 815.550781 C 1011.257812 811.941406 1011.863281 808.042969 1014.019531 804.714844 L 1024.609375 788.410156 L 1026.785156 785.058594 L 1038.183594 767.511719 C 1032.695312 761.066406 1029.011719 753.417969 1027.300781 745.351562 C 1024.621094 732.753906 1026.75 719.128906 1034.316406 707.472656 C 1041.890625 695.816406 1053.46875 688.328125 1066.070312 685.652344 C 1078.671875 682.96875 1092.292969 685.101562 1103.949219 692.667969 Z M 1055.28125 780.523438 C 1053.664062 779.769531 1052.070312 778.917969 1050.511719 777.976562 L 1050.507812 777.972656 L 1050.429688 777.925781 C 1050.328125 777.863281 1050.226562 777.800781 1050.121094 777.738281 C 1049.980469 777.648438 1049.835938 777.5625 1049.695312 777.472656 L 1049.644531 777.441406 C 1049.46875 777.328125 1049.292969 777.21875 1049.121094 777.105469 C 1048.945312 776.992188 1048.773438 776.875 1048.601562 776.761719 L 1048.550781 776.730469 C 1048.414062 776.636719 1048.273438 776.542969 1048.136719 776.445312 C 1048.035156 776.378906 1047.9375 776.3125 1047.839844 776.242188 L 1047.761719 776.1875 L 1047.757812 776.1875 C 1046.261719 775.148438 1044.839844 774.039062 1043.492188 772.871094 L 1032.660156 789.546875 C 1033.160156 789.914062 1033.644531 790.261719 1034.117188 790.597656 C 1035.378906 791.492188 1036.820312 792.464844 1038.453125 793.527344 C 1040.089844 794.589844 1041.570312 795.511719 1042.894531 796.296875 C 1043.394531 796.597656 1043.914062 796.894531 1044.449219 797.203125 Z M 1118.5625 725.953125 C 1116.277344 715.195312 1109.886719 705.316406 1099.9375 698.851562 C 1089.984375 692.390625 1078.355469 690.574219 1067.601562 692.859375 C 1056.847656 695.148438 1046.964844 701.535156 1040.503906 711.484375 C 1034.039062 721.4375 1032.222656 733.066406 1034.511719 743.820312 C 1036.796875 754.574219 1043.183594 764.460938 1053.136719 770.921875 C 1063.085938 777.382812 1074.714844 779.199219 1085.46875 776.914062 C 1096.226562 774.628906 1106.109375 768.238281 1112.570312 758.285156 C 1119.03125 748.335938 1120.851562 736.707031 1118.5625 725.953125 Z M 1031.992188 816.386719 L 1040.4375 803.378906 C 1040.011719 803.128906 1039.578125 802.875 1039.136719 802.613281 C 1037.40625 801.585938 1035.835938 800.617188 1034.441406 799.710938 C 1033.042969 798.800781 1031.519531 797.765625 1029.878906 796.601562 C 1029.460938 796.304688 1029.050781 796.011719 1028.652344 795.722656 L 1020.203125 808.734375 C 1019.152344 810.351562 1018.863281 812.253906 1019.234375 814.015625 C 1019.613281 815.78125 1020.652344 817.402344 1022.269531 818.453125 C 1023.886719 819.503906 1025.792969 819.792969 1027.554688 819.421875 C 1029.320312 819.042969 1030.941406 818.003906 1031.992188 816.386719 Z M 1031.992188 816.386719 " fill-opacity="1" fill-rule="nonzero"/></g></svg>